<svg width="91" height="73" viewBox="0 0 91 73" fill="none" xmlns="http://www.w3.org/2000/svg">
<path d="M0 69.927C9.21955 62.9781 19.1521 57.0414 29.6279 52.2183C45.8069 45.0037 61.2123 33.198 61.2123 17.5828C61.2123 1.96763 54.812 0 51.0242 0C45.8069 0 30.6517 6.24606 25.8363 32.6679C21.0209 59.0898 31.7057 72.3941 40.7147 72.9242C49.7199 73.458 53.3523 71.3951 58.9715 59.5893C64.2836 55.593 68.7881 54.4681 69.9976 48.7216C70.0645 48.3584 70.0553 47.9851 69.9705 47.6256C69.8857 47.2662 69.7273 46.9285 69.5053 46.6342C69.2833 46.3398 69.0027 46.0954 68.6813 45.9164C68.36 45.7374 68.005 45.6279 67.6392 45.5948L65.2125 45.2859C65.7672 44.3292 66.5209 43.5043 67.422 42.8679C68.3232 42.2314 69.3505 41.7984 70.4336 41.5985C73.9409 41.0685 76.3031 34.9177 76.3031 34.9177C76.3031 34.9177 63.8817 37.3849 56.4576 55.2498C49.0374 73.1148 34.7201 64.4321 33.5068 57.2175C30.2874 42.6639 32.3829 27.4312 39.4104 14.3034C47.5776 0 64.4732 11.1804 47.5776 31.3562C31.0536 47.9056 1.42945 54.0601 0 69.927ZM79.435 36.79L82.5441 42.0065C82.6963 42.2679 82.9047 42.4917 83.1541 42.6614C83.4035 42.8312 83.6875 42.9427 83.9853 42.9877C84.2831 43.0327 84.5872 43.01 84.8752 42.9214C85.1631 42.8328 85.4277 42.6804 85.6495 42.4755L90.3398 38.3191C90.6858 37.9939 90.9112 37.5597 90.9787 37.0883C91.0463 36.6169 90.952 36.1364 90.7113 35.7261L87.606 30.605C87.4536 30.3432 87.2448 30.1192 86.9949 29.9494C86.745 29.7795 86.4605 29.6682 86.1622 29.6236C85.8639 29.5789 85.5594 29.6021 85.2712 29.6915C84.983 29.7808 84.7184 29.934 84.4968 30.1397L79.8104 34.3534C79.4945 34.6651 79.2875 35.0714 79.2206 35.5114C79.1536 35.9513 79.2301 36.4013 79.4388 36.7938L79.435 36.79Z" fill="#307FE2"/>
</svg>
