<svg width="73" height="101" viewBox="0 0 73 101" fill="none" xmlns="http://www.w3.org/2000/svg">
<path d="M25.0966 100.108C20.0657 98.4291 17.5209 96.771 17.5209 95.1676C17.5209 95.0498 19.0553 94.953 20.9293 94.9488C29.0375 94.9362 33.4018 92.4869 49.9954 78.6416C53.2655 75.9062 57.2483 72.7836 58.8456 71.6979C61.6755 69.7663 65.6835 68.0788 67.4233 68.0788C68.853 68.0872 71.4732 69.9641 72.3075 71.5801C73.3556 73.6211 73.3389 73.659 71.3852 73.659C70.4419 73.659 68.7943 74.0251 67.721 74.4754C64.954 75.6327 58.0113 81.356 52.3767 87.1129C40.248 99.5148 33.2676 102.839 25.0966 100.108ZM9.37498 91.4391C4.95616 89.0109 3.37142 85.0593 3.38399 76.4827C3.39238 70.3681 4.45306 64.3334 6.63313 57.9746C7.34165 55.9041 7.9244 53.7958 7.9244 53.2866C7.9244 51.982 6.33127 52.1082 3.48042 53.6274C0.478641 55.235 -0.338883 55.2645 0.118092 53.7537C0.306751 53.1266 0.834997 52.1882 1.29197 51.6664C2.64193 50.1093 10.683 43.5527 12.3223 42.6606C13.1607 42.2103 14.7119 40.5354 15.7642 38.9404C21.5079 30.2503 30.1149 23.8537 38.395 22.1198C44.9561 20.7479 48.9809 22.7174 51.6011 28.5796C52.8714 31.4244 52.9804 32.1146 52.7918 36.3944C52.6115 40.5522 52.3767 41.5159 50.7375 44.8447C47.3123 51.8052 41.1284 56.6111 34.823 57.2213C31.7374 57.5201 29.4651 57.0193 18.8415 53.7032C15.8145 52.7563 12.9092 52.0998 12.3851 52.2345C11.0645 52.5838 10.553 53.7158 9.14858 59.3802C6.24742 71.0793 8.83834 79.9167 15.5378 81.175C20.1873 82.0461 28.9536 78.9446 35.9214 73.9578C48.1508 65.2129 55.5839 61.0467 59.7051 60.6174C62.1996 60.3649 62.4469 60.4491 64.43 62.246C65.5787 63.2897 66.522 64.4259 66.522 64.771C66.522 65.154 65.4948 65.5285 63.9227 65.7137C59.4452 66.2439 58.3635 66.9551 37.5984 82.9635C34.6008 85.2739 30.2323 88.0219 27.1802 89.5201C22.0068 92.0535 21.8307 92.0998 16.565 92.2681C11.9659 92.4154 10.9471 92.2976 9.37498 91.4349V91.4391ZM45.7527 46.4607C48.5951 44.466 49.6852 38.2755 47.8866 34.3576C46 30.2545 42.4826 28.3313 36.9695 28.3902C30.8821 28.4576 24.3168 31.8663 19.965 37.2192C16.9339 40.9478 17.0723 41.2803 22.0655 42.2355C24.43 42.69 28.8614 43.8768 31.9177 44.8699C38.8771 47.1424 38.9609 47.1593 42.034 47.2308C43.6481 47.2729 45.0022 46.9867 45.7527 46.4607ZM28.7021 22.4144C28.3834 21.4423 27.2096 19.5402 26.0986 18.1851C22.6985 14.0609 22.7614 13.0425 26.8909 5.65696C30.182 -0.230464 30.9366 -1.01321 31.3768 0.994153C31.5445 1.7769 32.7017 3.77584 33.9468 5.44233C36.4455 8.79635 37.1498 11.2161 36.2946 13.4928C35.4854 15.6475 32.6807 20.2135 30.8528 22.3471L29.2848 24.1777L28.7021 22.4144Z" fill="#307FE2"/>
</svg>
