<svg width="32" height="32" viewBox="0 0 32 32" fill="none" xmlns="http://www.w3.org/2000/svg">
<g clip-path="url(#clip0_200_1006)">
<path d="M15.6 2.8108C19.7654 2.8108 20.2588 2.82671 21.9038 2.90172C23.6036 2.9793 25.3555 3.36722 26.594 4.60572C27.8444 5.85603 28.2204 7.5908 28.2982 9.2962C28.3733 10.9412 28.3891 11.4346 28.3891 15.5999C28.3891 19.7653 28.3732 20.2587 28.2982 21.9037C28.2211 23.5948 27.8254 25.3627 26.5942 26.594C25.3432 27.845 23.6107 28.2203 21.9037 28.2982C20.2589 28.3733 19.7656 28.3891 15.5999 28.3891C11.4343 28.3891 10.941 28.3732 9.29614 28.2982C7.6181 28.2216 5.82703 27.8153 4.6059 26.5942C3.36217 25.3505 2.97905 23.5996 2.90166 21.9037C2.82659 20.2587 2.81074 19.7653 2.81074 15.5999C2.81074 11.4346 2.82665 10.9411 2.90166 9.29614C2.97856 7.61109 3.37923 5.83239 4.60566 4.6059C5.8536 3.3579 7.59403 2.97936 9.29614 2.90166C10.9412 2.82671 11.4346 2.8108 15.6 2.8108ZM15.6 0C11.3633 0 10.8321 0.0179156 9.16811 0.0938437C6.75571 0.203958 4.36203 0.874636 2.6183 2.61824C0.868055 4.36849 0.203836 6.75754 0.0938437 9.16817C0.0179156 10.8321 0 11.3633 0 15.6C0 19.8367 0.0179156 20.3679 0.0938437 22.0319C0.203775 24.4404 0.878109 26.8415 2.61824 28.5816C4.36635 30.3298 6.76028 30.9962 9.16811 31.1061C10.8321 31.1821 11.3633 31.2 15.6 31.2C19.8367 31.2 20.3679 31.1821 22.0319 31.1062C24.4417 30.9962 26.8399 30.3235 28.5817 28.5818C30.3326 26.8309 30.9962 24.443 31.1062 22.0319C31.1821 20.3679 31.2 19.8367 31.2 15.6C31.2 11.3633 31.1821 10.8321 31.1062 9.16811C30.9962 6.75705 30.3241 4.36081 28.5818 2.61836C26.8361 0.872686 24.4354 0.203531 22.0318 0.0938437C20.3679 0.0179156 19.8367 0 15.6 0Z" fill="#0260EB"/>
<path d="M15.6002 7.58936C11.176 7.58936 7.58936 11.1759 7.58936 15.6002C7.58936 20.0244 11.176 23.611 15.6002 23.611C20.0244 23.611 23.611 20.0244 23.611 15.6002C23.611 11.176 20.0244 7.58936 15.6002 7.58936ZM15.6002 20.8002C12.7283 20.8002 10.4002 18.4721 10.4002 15.6002C10.4002 12.7283 12.7283 10.4002 15.6002 10.4002C18.4721 10.4002 20.8002 12.7283 20.8002 15.6002C20.8002 18.4721 18.4721 20.8002 15.6002 20.8002Z" fill="#0260EB"/>
<path d="M23.9272 9.14488C24.9611 9.14488 25.7992 8.30676 25.7992 7.27288C25.7992 6.239 24.9611 5.40088 23.9272 5.40088C22.8933 5.40088 22.0552 6.239 22.0552 7.27288C22.0552 8.30676 22.8933 9.14488 23.9272 9.14488Z" fill="#0260EB"/>
</g>
<defs>
<clipPath id="clip0_200_1006">
<rect width="31.2" height="31.2" fill="white"/>
</clipPath>
</defs>
</svg>
