<svg width="65" height="65" viewBox="0 0 65 65" fill="none" xmlns="http://www.w3.org/2000/svg">
<rect x="1" y="1" width="63" height="63" rx="31.5" stroke="#0260EB" stroke-width="2"/>
<path d="M39.6 23C37.1322 23 35.203 24.8587 33.4567 27.2199C31.0569 24.1643 29.05 23 26.6482 23C21.7517 23 18 29.3724 18 36.1172C18 40.3379 20.0419 43 23.4621 43C25.9237 43 27.6941 41.8395 30.8414 36.3379C30.8414 36.3379 32.1533 34.0211 33.0559 32.4251C33.3941 32.9722 33.7272 33.5225 34.0552 34.0758L35.531 36.5586C38.406 41.3696 40.0078 42.9999 42.9103 42.9999C46.2422 42.9999 48.0965 40.3015 48.0965 35.993C48.0966 28.931 44.2603 23 39.6 23ZM28.4414 34.8483C25.8897 38.8483 25.0069 39.7449 23.5862 39.7449C22.1241 39.7449 21.2552 38.4613 21.2552 36.1724C21.2552 31.2759 23.6966 26.2689 26.6069 26.2689C28.1829 26.2689 29.5 27.1791 31.5174 30.0672C29.6018 33.0055 28.4414 34.8483 28.4414 34.8483ZM38.072 34.3447L36.3074 31.4018C35.8298 30.6251 35.3722 29.9115 34.9306 29.2572C36.521 26.8025 37.8329 25.5793 39.3932 25.5793C42.6345 25.5793 45.2277 30.3517 45.2277 36.2138C45.2277 38.4483 44.4958 39.7449 42.9794 39.7449C41.526 39.7448 40.8316 38.785 38.072 34.3447Z" fill="#0260EB"/>
</svg>
