<svg width="24" height="24" viewBox="0 0 24 24" fill="none" xmlns="http://www.w3.org/2000/svg">
<path d="M16.636 15.2766C16.636 15.3388 16.6607 15.3984 16.7046 15.4423C16.7486 15.4863 16.8082 15.511 16.8704 15.511C16.9325 15.511 16.9921 15.4863 17.0361 15.4423C17.08 15.3984 17.1047 15.3388 17.1047 15.2766C17.1047 15.2145 17.08 15.1548 17.0361 15.1109C16.9921 15.0669 16.9325 15.0422 16.8704 15.0422C16.8082 15.0422 16.7486 15.0669 16.7046 15.1109C16.6607 15.1548 16.636 15.2145 16.636 15.2766Z" fill="#0260EB"/>
<path d="M12.0023 1.5H4.03125V22.5H19.9688V9.0375L12.0023 1.5ZM18.5367 9.10078H11.9742V2.88984L18.5367 9.10078ZM18.9375 21.4688H5.0625V2.53125H11.5922L11.5969 2.53594V9.47812H18.9305L18.9352 9.48281V21.4688H18.9375Z" fill="#0260EB"/>
<path d="M6.57422 12.4219H14.2125V12.7969H6.57422V12.4219Z" fill="#0260EB"/>
<path d="M14.9883 12.4219H17.1023V12.7969H14.9883V12.4219Z" fill="#0260EB"/>
<path d="M9.45703 15.0422H15.9492V15.4172H9.45703V15.0422Z" fill="#0260EB"/>
<path d="M6.57666 15.0422H8.71416V15.4172H6.57666V15.0422Z" fill="#0260EB"/>
<path d="M6.56006 17.6648H14.2124V18.0398H6.56006V17.6648Z" fill="#0260EB"/>
<path d="M15.3704 17.6648H17.1024V18.0398H15.3704V17.6648Z" fill="#0260EB"/>
</svg>
