<svg width="65" height="65" viewBox="0 0 65 65" fill="none" xmlns="http://www.w3.org/2000/svg">
<rect width="65" height="65" rx="32.5" fill="#0260EB"/>
<path fill-rule="evenodd" clip-rule="evenodd" d="M43.1668 21.6938C40.2479 18.7714 36.3661 17.1614 32.2303 17.1597C23.7087 17.1597 16.7731 24.0948 16.7698 32.619C16.7686 35.3439 17.4805 38.0036 18.8335 40.3482L16.6401 48.3597L24.836 46.2097C27.0941 47.4415 29.6366 48.0906 32.2242 48.0915H32.2306C40.7513 48.0915 47.6875 41.1558 47.6909 32.6313C47.6925 28.5003 46.0858 24.616 43.1668 21.6938ZM32.2304 45.4805H32.2252C29.9194 45.4796 27.6578 44.8601 25.6849 43.6893L25.2157 43.4108L20.3521 44.6867L21.6503 39.9447L21.3448 39.4585C20.0584 37.4126 19.379 35.048 19.3801 32.6199C19.3829 25.535 25.1475 19.7708 32.2356 19.7708C35.6678 19.772 38.8942 21.1104 41.3204 23.5393C43.7465 25.9682 45.0818 29.1968 45.0805 32.6303C45.0776 39.7159 39.3131 45.4805 32.2304 45.4805ZM39.279 35.8565C38.8927 35.6631 36.9934 34.7287 36.6393 34.5996C36.2852 34.4707 36.0276 34.4063 35.7701 34.7929C35.5127 35.1796 34.7723 36.0498 34.5469 36.3076C34.3216 36.5653 34.0963 36.5978 33.71 36.4043C33.3237 36.2109 32.079 35.8031 30.6035 34.4869C29.4551 33.4625 28.6798 32.1975 28.4545 31.8107C28.2291 31.424 28.4304 31.215 28.6238 31.0224C28.7976 30.8493 29.0101 30.5712 29.2033 30.3456C29.3964 30.1201 29.4608 29.9589 29.5895 29.7012C29.7183 29.4433 29.6539 29.2177 29.5574 29.0244C29.4608 28.8311 28.6882 26.9296 28.3663 26.1561C28.0528 25.4029 27.7343 25.5049 27.4972 25.4929C27.2721 25.4817 27.0143 25.4793 26.7568 25.4793C26.4993 25.4793 26.0808 25.576 25.7267 25.9627C25.3725 26.3495 24.3746 27.2841 24.3746 29.1854C24.3746 31.0869 25.7588 32.9238 25.952 33.1816C26.1451 33.4395 28.676 37.3413 32.5512 39.0147C33.4728 39.4127 34.1924 39.6504 34.7534 39.8284C35.6788 40.1224 36.5209 40.0809 37.1866 39.9814C37.9288 39.8706 39.4721 39.047 39.794 38.1447C40.1158 37.2421 40.1158 36.4687 40.0193 36.3076C39.9228 36.1466 39.6653 36.0499 39.279 35.8565Z" fill="white"/>
</svg>
